<svg width="1919" height="1144" viewBox="0 0 1919 1144" fill="none" xmlns="http://www.w3.org/2000/svg">
<path d="M1919 -33H21V573.166C21 704.229 128.616 757.999 182.425 768.501L1676.86 1135.23C1847.37 1180.59 1909.33 1039.03 1919 962.575V-33Z" fill="#53B848"/>
<path d="M1919 -89H-1V524.377C-1 656.999 107.864 711.408 162.296 722.034L1674.06 1093.12C1846.54 1139.03 1909.22 995.78 1919 918.417V-89Z" fill="#26751D"/>
<mask id="mask0" mask-type="alpha" maskUnits="userSpaceOnUse" x="-8" y="-98" width="1934" height="1200">
<path d="M1926 -98H-8V520.012C-8 653.636 101.658 708.456 156.486 719.163L1679.27 1093.05C1853.01 1139.31 1916.15 994.977 1926 917.03V-98Z" fill="#26751D"/>
</mask>
<g mask="url(#mask0)">
<path d="M1412.47 32.0333C1284.66 155.556 1374.62 282.644 1435.58 330.747L2039.59 694.71L1936.96 -494.959L1412.47 32.0333Z" fill="#2B7B22"/>
<path d="M287.449 264.043C446.774 185.254 399.736 36.822 356.301 -27.5452L-108.357 -558L-372.496 606.506L287.449 264.043Z" fill="#2F8425"/>
<circle cx="926" cy="906" r="572" fill="#2B7B22"/>
<circle cx="926" cy="906" r="494" fill="#2F8425"/>
<circle cx="926" cy="906" r="423" fill="#378D2D"/>
<circle cx="926" cy="906" r="349" fill="#409937"/>
</g>
</svg>
